<?xml version="1.0" standalone="no"?>
<!DOCTYPE svg PUBLIC "-//W3C//DTD SVG 20010904//EN"
 "http://www.w3.org/TR/2001/REC-SVG-20010904/DTD/svg10.dtd">
<svg version="1.0" xmlns="http://www.w3.org/2000/svg"
 width="900.000000pt" height="900.000000pt" viewBox="0 0 900.000000 900.000000"
 preserveAspectRatio="xMidYMid meet">

<g transform="translate(0.000000,900.000000) scale(0.100000,-0.100000)"
fill="#000000" stroke="none">
<path d="M4322 8445 c-537 -94 -925 -574 -899 -1110 7 -132 28 -232 71 -341
137 -344 430 -595 787 -671 115 -24 324 -24 439 0 414 89 749 423 837 837 24
116 24 325 0 439 -89 413 -418 745 -827 836 -105 23 -305 28 -408 10z"/>
<path d="M4315 5564 c-271 -51 -512 -200 -674 -414 -304 -404 -290 -955 33
-1341 153 -183 375 -317 606 -366 116 -24 325 -24 439 0 417 90 748 421 838
838 24 114 24 323 0 439 -87 410 -422 747 -827 835 -108 23 -316 28 -415 9z"/>
<path d="M4320 2685 c-279 -54 -515 -198 -679 -415 -226 -300 -282 -696 -147
-1036 137 -344 429 -594 787 -671 114 -24 323 -24 439 0 414 88 749 423 837
837 24 116 24 325 0 439 -89 413 -419 746 -827 836 -105 23 -316 28 -410 10z"/>
</g>
</svg>
